<svg xmlns="http://www.w3.org/2000/svg" width="672" height="576" viewBox="0 0 672 576" shape-rendering="crispEdges"><g><rect x="144" y="144" width="384" height="288" fill="#f15c45"/><rect x="144" y="432" width="48" height="96" fill="#f15c45"/><rect x="240" y="432" width="48" height="96" fill="#f15c45"/><rect x="384" y="432" width="48" height="96" fill="#f15c45"/><rect x="480" y="432" width="48" height="96" fill="#f15c45"/><rect x="48" y="264" width="96" height="96" fill="#f15c45"/><rect x="528" y="240" width="144" height="96" fill="#f15c45"/><rect x="576" y="72" width="96" height="168" fill="#f15c45"/><rect x="557" y="34" width="134" height="38" fill="#f15c45"/><rect x="192" y="192" width="48" height="6" fill="#131313"/><rect x="192" y="198" width="48" height="6" fill="#131313"/><rect x="192" y="204" width="48" height="6" fill="#131313"/><rect x="192" y="210" width="48" height="6" fill="#131313"/><rect x="432" y="192" width="48" height="6" fill="#131313"/><rect x="432" y="198" width="48" height="6" fill="#131313"/><rect x="432" y="204" width="48" height="6" fill="#131313"/><rect x="432" y="210" width="48" height="6" fill="#131313"/><rect x="182" y="144" width="68" height="7" fill="#131313"/><rect x="422" y="144" width="68" height="7" fill="#131313"/><rect x="264" y="283" width="48" height="10" fill="#131313"/><rect x="274" y="293" width="48" height="9" fill="#131313"/><rect x="283" y="302" width="39" height="10" fill="#131313"/><rect x="48" y="38" width="67" height="15" fill="#131313"/><rect x="48" y="53" width="17" height="16" fill="#131313"/><rect x="98" y="53" width="17" height="16" fill="#131313"/><rect x="98" y="69" width="17" height="15" fill="#131313"/><rect x="65" y="84" width="33" height="15" fill="#131313"/><rect x="65" y="99" width="17" height="15" fill="#131313"/><rect x="65" y="129" width="17" height="15" fill="#131313"/></g></svg>
