<svg xmlns="http://www.w3.org/2000/svg" width="672" height="576" viewBox="0 0 672 576" shape-rendering="crispEdges"><g transform="rotate(11 336.0 288.0)"><rect x="144" y="144" width="384" height="288" fill="#f15c45"/><rect x="144" y="432" width="48" height="48" fill="#f15c45"/><rect x="240" y="432" width="48" height="77" fill="#f15c45"/><rect x="384" y="432" width="48" height="77" fill="#f15c45"/><rect x="480" y="432" width="48" height="48" fill="#f15c45"/><rect x="48" y="178" width="96" height="96" fill="#f15c45"/><rect x="528" y="178" width="96" height="96" fill="#f15c45"/><rect x="210" y="198" width="12" height="6" fill="#131313"/><rect x="204" y="204" width="24" height="6" fill="#131313"/><rect x="198" y="210" width="12" height="6" fill="#131313"/><rect x="222" y="210" width="12" height="6" fill="#131313"/><rect x="192" y="216" width="12" height="6" fill="#131313"/><rect x="228" y="216" width="12" height="6" fill="#131313"/><rect x="192" y="222" width="12" height="6" fill="#131313"/><rect x="228" y="222" width="12" height="6" fill="#131313"/><rect x="450" y="198" width="12" height="6" fill="#131313"/><rect x="444" y="204" width="24" height="6" fill="#131313"/><rect x="438" y="210" width="12" height="6" fill="#131313"/><rect x="462" y="210" width="12" height="6" fill="#131313"/><rect x="432" y="216" width="12" height="6" fill="#131313"/><rect x="468" y="216" width="12" height="6" fill="#131313"/><rect x="432" y="222" width="12" height="6" fill="#131313"/><rect x="468" y="222" width="12" height="6" fill="#131313"/><rect x="288" y="281" width="96" height="14" fill="#131313"/><rect x="276" y="295" width="120" height="15" fill="#131313"/><rect x="276" y="310" width="120" height="14" fill="#131313"/><rect x="276" y="324" width="120" height="14" fill="#131313"/><rect x="288" y="338" width="96" height="15" fill="#131313"/></g></svg>
