<svg xmlns="http://www.w3.org/2000/svg" width="672" height="576" viewBox="0 0 672 576" shape-rendering="crispEdges"><g><rect x="144" y="144" width="384" height="288" fill="#f15c45"/><rect x="144" y="432" width="48" height="96" fill="#f15c45"/><rect x="240" y="432" width="48" height="96" fill="#f15c45"/><rect x="384" y="432" width="48" height="96" fill="#f15c45"/><rect x="480" y="432" width="48" height="96" fill="#f15c45"/><rect x="48" y="269" width="96" height="96" fill="#f15c45"/><rect x="528" y="269" width="96" height="96" fill="#f15c45"/><rect x="192" y="210" width="48" height="6" fill="#131313"/><rect x="192" y="216" width="48" height="6" fill="#131313"/><rect x="192" y="222" width="48" height="6" fill="#131313"/><rect x="192" y="228" width="48" height="6" fill="#131313"/><rect x="192" y="234" width="48" height="6" fill="#131313"/><rect x="432" y="210" width="48" height="6" fill="#131313"/><rect x="432" y="216" width="48" height="6" fill="#131313"/><rect x="432" y="222" width="48" height="6" fill="#131313"/><rect x="432" y="228" width="48" height="6" fill="#131313"/><rect x="432" y="234" width="48" height="6" fill="#131313"/><rect x="182" y="144" width="68" height="6" fill="#131313"/><rect x="422" y="168" width="68" height="6" fill="#131313"/><rect x="422" y="174" width="68" height="7" fill="#131313"/><rect x="308" y="283" width="52" height="10" fill="#131313"/><rect x="318" y="293" width="52" height="9" fill="#131313"/><rect x="329" y="302" width="41" height="10" fill="#131313"/></g></svg>
