<svg xmlns="http://www.w3.org/2000/svg" width="672" height="576" viewBox="0 0 672 576" shape-rendering="crispEdges"><g><rect x="144" y="144" width="384" height="288" fill="#f15c45"/><rect x="144" y="432" width="48" height="67" fill="#f15c45"/><rect x="240" y="432" width="48" height="67" fill="#f15c45"/><rect x="384" y="432" width="48" height="67" fill="#f15c45"/><rect x="480" y="432" width="48" height="67" fill="#f15c45"/><rect x="19" y="163" width="125" height="96" fill="#f15c45"/><rect x="528" y="163" width="125" height="96" fill="#f15c45"/><rect x="180" y="180" width="72" height="9" fill="#131313"/><rect x="180" y="189" width="72" height="9" fill="#131313"/><rect x="180" y="198" width="72" height="9" fill="#131313"/><rect x="180" y="207" width="72" height="9" fill="#131313"/><rect x="180" y="216" width="72" height="9" fill="#131313"/><rect x="180" y="225" width="72" height="9" fill="#131313"/><rect x="180" y="234" width="72" height="9" fill="#131313"/><rect x="180" y="243" width="72" height="9" fill="#131313"/><rect x="420" y="180" width="72" height="9" fill="#131313"/><rect x="420" y="189" width="72" height="9" fill="#131313"/><rect x="420" y="198" width="72" height="9" fill="#131313"/><rect x="420" y="207" width="72" height="9" fill="#131313"/><rect x="420" y="216" width="72" height="9" fill="#131313"/><rect x="420" y="225" width="72" height="9" fill="#131313"/><rect x="420" y="234" width="72" height="9" fill="#131313"/><rect x="420" y="243" width="72" height="9" fill="#131313"/><rect x="182" y="139" width="68" height="7" fill="#131313"/><rect x="422" y="139" width="68" height="7" fill="#131313"/><rect x="318" y="293" width="36" height="13" fill="#131313"/><rect x="310" y="306" width="52" height="14" fill="#131313"/><rect x="310" y="320" width="52" height="13" fill="#131313"/><rect x="318" y="333" width="36" height="14" fill="#131313"/></g></svg>
