<svg xmlns="http://www.w3.org/2000/svg" width="672" height="576" viewBox="0 0 672 576" shape-rendering="crispEdges"><g transform="rotate(-3 336.0 288.0)"><rect x="144" y="144" width="384" height="288" fill="#f15c45"/><rect x="144" y="432" width="48" height="67" fill="#f15c45"/><rect x="240" y="432" width="48" height="67" fill="#f15c45"/><rect x="384" y="432" width="48" height="67" fill="#f15c45"/><rect x="480" y="432" width="48" height="67" fill="#f15c45"/><rect x="77" y="298" width="67" height="96" fill="#f15c45"/><rect x="528" y="298" width="67" height="96" fill="#f15c45"/><rect x="209" y="203" width="14" height="6" fill="#131313"/><rect x="203" y="209" width="26" height="7" fill="#131313"/><rect x="203" y="216" width="26" height="7" fill="#131313"/><rect x="209" y="223" width="14" height="6" fill="#131313"/><rect x="449" y="203" width="14" height="6" fill="#131313"/><rect x="443" y="209" width="26" height="7" fill="#131313"/><rect x="443" y="216" width="26" height="7" fill="#131313"/><rect x="449" y="223" width="14" height="6" fill="#131313"/><rect x="216" y="149" width="34" height="7" fill="#131313"/><rect x="199" y="156" width="42" height="7" fill="#131313"/><rect x="182" y="163" width="34" height="7" fill="#131313"/><rect x="422" y="149" width="34" height="7" fill="#131313"/><rect x="431" y="156" width="42" height="7" fill="#131313"/><rect x="456" y="163" width="34" height="7" fill="#131313"/><rect x="274" y="283" width="20" height="10" fill="#131313"/><rect x="315" y="283" width="21" height="10" fill="#131313"/><rect x="357" y="283" width="21" height="10" fill="#131313"/><rect x="294" y="293" width="21" height="9" fill="#131313"/><rect x="336" y="293" width="21" height="9" fill="#131313"/><rect x="378" y="293" width="20" height="9" fill="#131313"/><rect x="88" y="96" width="11" height="6" fill="#4fa3e3"/><rect x="82" y="102" width="23" height="5" fill="#4fa3e3"/><rect x="77" y="107" width="33" height="6" fill="#4fa3e3"/><rect x="77" y="113" width="33" height="5" fill="#4fa3e3"/><rect x="82" y="118" width="23" height="6" fill="#4fa3e3"/><rect x="88" y="124" width="11" height="6" fill="#4fa3e3"/><rect x="582" y="115" width="12" height="6" fill="#4fa3e3"/><rect x="577" y="121" width="22" height="5" fill="#4fa3e3"/><rect x="571" y="126" width="34" height="6" fill="#4fa3e3"/><rect x="571" y="132" width="34" height="6" fill="#4fa3e3"/><rect x="577" y="138" width="22" height="5" fill="#4fa3e3"/><rect x="582" y="143" width="12" height="6" fill="#4fa3e3"/></g></svg>
